<svg xmlns="http://www.w3.org/2000/svg" viewBox="0 0 64 64"><title>hand-credit-card</title><g id="hand-credit-card"><polyline points="29.17 23 15 23 15 3 49 3 49 23 37.67 23" fill="#5ce7ff"/><polyline points="29 6 14 6 14 2 50 2 50 6 38 6" fill="#ffcb47"/><polyline points="29.5 21 17 21 17 9 47 9 47 21 37 21" fill="#00c9e0"/><path d="M22,54V41c0-4,3.92-10.89,6-14a15.89,15.89,0,0,0,1.54-4c1-3.28,2.07-7,5.46-7,1.91,0,3,1.82,3,5a10,10,0,0,1-.87,3.48l.19-.48h5.61l.17.8a32.94,32.94,0,0,0,1.17,3.69C45.12,30.88,46,33.35,46,35c0,2.39-1.36,4.76-2.8,7.27C41.63,45,40,47.86,40,51v3ZM35,31a7.33,7.33,0,0,1,.38-2.12A7.34,7.34,0,0,0,35,31v0Zm.38-2.13Zm0,0Z" fill="#fff"/><path d="M24,30.81A5.18,5.18,0,0,1,23,28a6.4,6.4,0,0,1,1.68-3.65L25,24h4.3l-.5,1.35A8,8,0,0,1,28,27c0,.06-1.06,1.6-2.25,3.74L25,32.16Z" fill="#e6e6e6"/><rect x="20" y="54" width="22" height="9" fill="#ff504d"/><rect x="39" y="54" width="3" height="9" fill="#de3d3a"/><path d="M29,24H15a1,1,0,0,1-1-1V4a2,2,0,0,1,2-2H48a2,2,0,0,1,2,2V22a2,2,0,0,1-2,2H38" fill="none" stroke="#3e3948" stroke-miterlimit="10" stroke-width="2"/><polyline points="42 63 42 54 20 54 20 63" fill="none" stroke="#3e3948" stroke-miterlimit="10" stroke-width="2"/><line x1="23" y1="59" x2="25" y2="59" fill="none" stroke="#3e3948" stroke-miterlimit="10" stroke-width="2"/><path d="M35,39V31c0-3,3-7,3-10s-1-5-3-5c-5,0-5,8-7,11s-6,10-6,14V53" fill="none" stroke="#3e3948" stroke-miterlimit="10" stroke-width="2"/><path d="M40,53V51c0-6,6-11,6-16,0-3-3-9-3-11" fill="none" stroke="#3e3948" stroke-miterlimit="10" stroke-width="2"/><path d="M25,24s-2,2-2,4,2,4,2,4" fill="none" stroke="#3e3948" stroke-miterlimit="10" stroke-width="2"/><line x1="14" y1="6" x2="50" y2="6" fill="none" stroke="#3e3948" stroke-miterlimit="10" stroke-width="2"/><path d="M36,14a2,2,0,0,1,4,0" fill="none" stroke="#3e3948" stroke-miterlimit="10" stroke-width="2"/><path d="M42,13a2,2,0,1,1-2,2" fill="none" stroke="#3e3948" stroke-miterlimit="10" stroke-width="2"/><line x1="21" y1="12" x2="19" y2="12" fill="none" stroke="#3e3948" stroke-miterlimit="10" stroke-width="2"/><line x1="23" y1="12" x2="32" y2="12" fill="none" stroke="#3e3948" stroke-miterlimit="10" stroke-width="2"/><line x1="19" y1="16" x2="30" y2="16" fill="none" stroke="#3e3948" stroke-miterlimit="10" stroke-width="2"/></g></svg>